<svg xmlns="http://www.w3.org/2000/svg" width="920" height="520">
<rect width="100%" height="100%" fill="white"/>
<text x="460.0" y="28" text-anchor="middle" font-family="sans-serif" font-size="20">Request throughput — empty_pool</text>
<line x1="90" y1="55" x2="90" y2="445" stroke="#334155"/>
<line x1="90" y1="445" x2="890" y2="445" stroke="#334155"/>
<line x1="90" y1="445.0" x2="890" y2="445.0" stroke="#e2e8f0"/>
<text x="82" y="449.0" text-anchor="end" font-family="sans-serif" font-size="11">0.0</text>
<line x1="90" y1="367.0" x2="890" y2="367.0" stroke="#e2e8f0"/>
<text x="82" y="371.0" text-anchor="end" font-family="sans-serif" font-size="11">0.7</text>
<line x1="90" y1="289.0" x2="890" y2="289.0" stroke="#e2e8f0"/>
<text x="82" y="293.0" text-anchor="end" font-family="sans-serif" font-size="11">1.4</text>
<line x1="90" y1="211.0" x2="890" y2="211.0" stroke="#e2e8f0"/>
<text x="82" y="215.0" text-anchor="end" font-family="sans-serif" font-size="11">2.1</text>
<line x1="90" y1="133.0" x2="890" y2="133.0" stroke="#e2e8f0"/>
<text x="82" y="137.0" text-anchor="end" font-family="sans-serif" font-size="11">2.8</text>
<line x1="90" y1="55.0" x2="890" y2="55.0" stroke="#e2e8f0"/>
<text x="82" y="59.0" text-anchor="end" font-family="sans-serif" font-size="11">3.5</text>
<text x="90.0" y="469" text-anchor="middle" font-family="sans-serif" font-size="12">12</text>
<text x="356.7" y="469" text-anchor="middle" font-family="sans-serif" font-size="12">36</text>
<text x="623.3" y="469" text-anchor="middle" font-family="sans-serif" font-size="12">72</text>
<text x="890.0" y="469" text-anchor="middle" font-family="sans-serif" font-size="12">144</text>
<polyline points="90.0,237.4 356.7,121.6 623.3,154.6 890.0,154.3" fill="none" stroke="#64748b" stroke-width="3"/>
<circle cx="90.0" cy="237.4" r="4" fill="#64748b"/>
<circle cx="356.7" cy="121.6" r="4" fill="#64748b"/>
<circle cx="623.3" cy="154.6" r="4" fill="#64748b"/>
<circle cx="890.0" cy="154.3" r="4" fill="#64748b"/>
<line x1="90" y1="495" x2="114" y2="495" stroke="#64748b" stroke-width="3"/>
<text x="120" y="499" font-family="sans-serif" font-size="11">round_robin</text>
<polyline points="90.0,237.4 356.7,121.6 623.3,154.6 890.0,154.3" fill="none" stroke="#f59e0b" stroke-width="3"/>
<circle cx="90.0" cy="237.4" r="4" fill="#f59e0b"/>
<circle cx="356.7" cy="121.6" r="4" fill="#f59e0b"/>
<circle cx="623.3" cy="154.6" r="4" fill="#f59e0b"/>
<circle cx="890.0" cy="154.3" r="4" fill="#f59e0b"/>
<line x1="245" y1="495" x2="269" y2="495" stroke="#f59e0b" stroke-width="3"/>
<text x="275" y="499" font-family="sans-serif" font-size="11">least_requests</text>
<polyline points="90.0,217.2 356.7,102.4 623.3,134.7 890.0,149.2" fill="none" stroke="#8b5cf6" stroke-width="3"/>
<circle cx="90.0" cy="217.2" r="4" fill="#8b5cf6"/>
<circle cx="356.7" cy="102.4" r="4" fill="#8b5cf6"/>
<circle cx="623.3" cy="134.7" r="4" fill="#8b5cf6"/>
<circle cx="890.0" cy="149.2" r="4" fill="#8b5cf6"/>
<line x1="400" y1="495" x2="424" y2="495" stroke="#8b5cf6" stroke-width="3"/>
<text x="430" y="499" font-family="sans-serif" font-size="11">token_max</text>
<polyline points="90.0,210.1 356.7,91.1 623.3,134.4 890.0,137.2" fill="none" stroke="#059669" stroke-width="3"/>
<circle cx="90.0" cy="210.1" r="4" fill="#059669"/>
<circle cx="356.7" cy="91.1" r="4" fill="#059669"/>
<circle cx="623.3" cy="134.4" r="4" fill="#059669"/>
<circle cx="890.0" cy="137.2" r="4" fill="#059669"/>
<line x1="555" y1="495" x2="579" y2="495" stroke="#059669" stroke-width="3"/>
<text x="585" y="499" font-family="sans-serif" font-size="11">token_ewma</text>
<polyline points="90.0,191.1 356.7,83.9 623.3,118.6 890.0,124.1" fill="none" stroke="#2563eb" stroke-width="3"/>
<circle cx="90.0" cy="191.1" r="4" fill="#2563eb"/>
<circle cx="356.7" cy="83.9" r="4" fill="#2563eb"/>
<circle cx="623.3" cy="118.6" r="4" fill="#2563eb"/>
<circle cx="890.0" cy="124.1" r="4" fill="#2563eb"/>
<line x1="710" y1="495" x2="734" y2="495" stroke="#2563eb" stroke-width="3"/>
<text x="740" y="499" font-family="sans-serif" font-size="11">oracle</text>
<text x="490.0" y="472" text-anchor="middle" font-family="sans-serif" font-size="12">simultaneous requests</text>
<text x="18" y="250.0" transform="rotate(-90 18 250.0)" text-anchor="middle" font-family="sans-serif" font-size="12">requests / second</text>
</svg>