<svg xmlns="http://www.w3.org/2000/svg" width="960" height="560" viewBox="0 0 960 560">
<rect width="100%" height="100%" fill="#ffffff"/>
<text x="480.0" y="32" text-anchor="middle" font-family="sans-serif" font-size="22" font-weight="600">p95 TTFT vs batch</text>
<line x1="90" y1="480.00" x2="925" y2="480.00" stroke="#e5e7eb"/>
<text x="80" y="484.00" text-anchor="end" font-family="sans-serif" font-size="12" fill="#4b5563">0.0</text>
<line x1="90" y1="397.00" x2="925" y2="397.00" stroke="#e5e7eb"/>
<text x="80" y="401.00" text-anchor="end" font-family="sans-serif" font-size="12" fill="#4b5563">1580.1</text>
<line x1="90" y1="314.00" x2="925" y2="314.00" stroke="#e5e7eb"/>
<text x="80" y="318.00" text-anchor="end" font-family="sans-serif" font-size="12" fill="#4b5563">3160.1</text>
<line x1="90" y1="231.00" x2="925" y2="231.00" stroke="#e5e7eb"/>
<text x="80" y="235.00" text-anchor="end" font-family="sans-serif" font-size="12" fill="#4b5563">4740.2</text>
<line x1="90" y1="148.00" x2="925" y2="148.00" stroke="#e5e7eb"/>
<text x="80" y="152.00" text-anchor="end" font-family="sans-serif" font-size="12" fill="#4b5563">6320.2</text>
<line x1="90" y1="65.00" x2="925" y2="65.00" stroke="#e5e7eb"/>
<text x="80" y="69.00" text-anchor="end" font-family="sans-serif" font-size="12" fill="#4b5563">7900.3</text>
<line x1="90" y1="65" x2="90" y2="480" stroke="#111827"/>
<line x1="90" y1="480" x2="925" y2="480" stroke="#111827"/>
<text x="90.00" y="504" text-anchor="middle" font-family="sans-serif" font-size="13">1</text>
<text x="298.75" y="504" text-anchor="middle" font-family="sans-serif" font-size="13">2</text>
<text x="507.50" y="504" text-anchor="middle" font-family="sans-serif" font-size="13">4</text>
<text x="716.25" y="504" text-anchor="middle" font-family="sans-serif" font-size="13">8</text>
<text x="925.00" y="504" text-anchor="middle" font-family="sans-serif" font-size="13">16</text>
<text x="507.5" y="535" text-anchor="middle" font-family="sans-serif" font-size="14">Effective batch size / concurrency</text>
<text transform="translate(22 272.5) rotate(-90)" text-anchor="middle" font-family="sans-serif" font-size="14">p95 TTFT, ms</text>
<polyline points="90.00,470.09 298.75,461.25 507.50,444.53 716.25,410.05 925.00,344.54" fill="none" stroke="#059669" stroke-width="3"/>
<circle cx="90.00" cy="470.09" r="4" fill="#059669"/>
<circle cx="298.75" cy="461.25" r="4" fill="#059669"/>
<circle cx="507.50" cy="444.53" r="4" fill="#059669"/>
<circle cx="716.25" cy="410.05" r="4" fill="#059669"/>
<circle cx="925.00" cy="344.54" r="4" fill="#059669"/>
<line x1="90" y1="552" x2="114" y2="552" stroke="#059669" stroke-width="3"/>
<text x="121" y="556" font-family="sans-serif" font-size="13">lmdeploy</text>
<polyline points="90.00,458.16 298.75,437.98 507.50,397.01 716.25,319.44 925.00,102.73" fill="none" stroke="#2563eb" stroke-width="3"/>
<circle cx="90.00" cy="458.16" r="4" fill="#2563eb"/>
<circle cx="298.75" cy="437.98" r="4" fill="#2563eb"/>
<circle cx="507.50" cy="397.01" r="4" fill="#2563eb"/>
<circle cx="716.25" cy="319.44" r="4" fill="#2563eb"/>
<circle cx="925.00" cy="102.73" r="4" fill="#2563eb"/>
<line x1="240" y1="552" x2="264" y2="552" stroke="#2563eb" stroke-width="3"/>
<text x="271" y="556" font-family="sans-serif" font-size="13">sglang</text>
<polyline points="90.00,469.95 298.75,461.01 507.50,444.02 716.25,414.66 925.00,353.22" fill="none" stroke="#dc2626" stroke-width="3"/>
<circle cx="90.00" cy="469.95" r="4" fill="#dc2626"/>
<circle cx="298.75" cy="461.01" r="4" fill="#dc2626"/>
<circle cx="507.50" cy="444.02" r="4" fill="#dc2626"/>
<circle cx="716.25" cy="414.66" r="4" fill="#dc2626"/>
<circle cx="925.00" cy="353.22" r="4" fill="#dc2626"/>
<line x1="390" y1="552" x2="414" y2="552" stroke="#dc2626" stroke-width="3"/>
<text x="421" y="556" font-family="sans-serif" font-size="13">vllm</text>
</svg>
