<svg xmlns="http://www.w3.org/2000/svg" width="960" height="560" viewBox="0 0 960 560">
<rect width="100%" height="100%" fill="#ffffff"/>
<text x="480.0" y="32" text-anchor="middle" font-family="sans-serif" font-size="22" font-weight="600">Peak VRAM vs batch</text>
<line x1="90" y1="480.00" x2="925" y2="480.00" stroke="#e5e7eb"/>
<text x="80" y="484.00" text-anchor="end" font-family="sans-serif" font-size="12" fill="#4b5563">0.0</text>
<line x1="90" y1="397.00" x2="925" y2="397.00" stroke="#e5e7eb"/>
<text x="80" y="401.00" text-anchor="end" font-family="sans-serif" font-size="12" fill="#4b5563">2988.3</text>
<line x1="90" y1="314.00" x2="925" y2="314.00" stroke="#e5e7eb"/>
<text x="80" y="318.00" text-anchor="end" font-family="sans-serif" font-size="12" fill="#4b5563">5976.5</text>
<line x1="90" y1="231.00" x2="925" y2="231.00" stroke="#e5e7eb"/>
<text x="80" y="235.00" text-anchor="end" font-family="sans-serif" font-size="12" fill="#4b5563">8964.8</text>
<line x1="90" y1="148.00" x2="925" y2="148.00" stroke="#e5e7eb"/>
<text x="80" y="152.00" text-anchor="end" font-family="sans-serif" font-size="12" fill="#4b5563">11953.0</text>
<line x1="90" y1="65.00" x2="925" y2="65.00" stroke="#e5e7eb"/>
<text x="80" y="69.00" text-anchor="end" font-family="sans-serif" font-size="12" fill="#4b5563">14941.3</text>
<line x1="90" y1="65" x2="90" y2="480" stroke="#111827"/>
<line x1="90" y1="480" x2="925" y2="480" stroke="#111827"/>
<text x="90.00" y="504" text-anchor="middle" font-family="sans-serif" font-size="13">1</text>
<text x="298.75" y="504" text-anchor="middle" font-family="sans-serif" font-size="13">2</text>
<text x="507.50" y="504" text-anchor="middle" font-family="sans-serif" font-size="13">4</text>
<text x="716.25" y="504" text-anchor="middle" font-family="sans-serif" font-size="13">8</text>
<text x="925.00" y="504" text-anchor="middle" font-family="sans-serif" font-size="13">16</text>
<text x="507.5" y="535" text-anchor="middle" font-family="sans-serif" font-size="14">Effective batch size / concurrency</text>
<text transform="translate(22 272.5) rotate(-90)" text-anchor="middle" font-family="sans-serif" font-size="14">Peak VRAM, MiB</text>
<polyline points="90.00,102.73 298.75,102.73 507.50,102.73 716.25,102.73 925.00,102.73" fill="none" stroke="#059669" stroke-width="3"/>
<circle cx="90.00" cy="102.73" r="4" fill="#059669"/>
<circle cx="298.75" cy="102.73" r="4" fill="#059669"/>
<circle cx="507.50" cy="102.73" r="4" fill="#059669"/>
<circle cx="716.25" cy="102.73" r="4" fill="#059669"/>
<circle cx="925.00" cy="102.73" r="4" fill="#059669"/>
<line x1="90" y1="552" x2="114" y2="552" stroke="#059669" stroke-width="3"/>
<text x="121" y="556" font-family="sans-serif" font-size="13">lmdeploy</text>
<polyline points="90.00,123.84 298.75,123.84 507.50,123.84 716.25,123.84 925.00,123.84" fill="none" stroke="#2563eb" stroke-width="3"/>
<circle cx="90.00" cy="123.84" r="4" fill="#2563eb"/>
<circle cx="298.75" cy="123.84" r="4" fill="#2563eb"/>
<circle cx="507.50" cy="123.84" r="4" fill="#2563eb"/>
<circle cx="716.25" cy="123.84" r="4" fill="#2563eb"/>
<circle cx="925.00" cy="123.84" r="4" fill="#2563eb"/>
<line x1="240" y1="552" x2="264" y2="552" stroke="#2563eb" stroke-width="3"/>
<text x="271" y="556" font-family="sans-serif" font-size="13">sglang</text>
<polyline points="90.00,147.72 298.75,147.72 507.50,147.72 716.25,147.72 925.00,147.72" fill="none" stroke="#dc2626" stroke-width="3"/>
<circle cx="90.00" cy="147.72" r="4" fill="#dc2626"/>
<circle cx="298.75" cy="147.72" r="4" fill="#dc2626"/>
<circle cx="507.50" cy="147.72" r="4" fill="#dc2626"/>
<circle cx="716.25" cy="147.72" r="4" fill="#dc2626"/>
<circle cx="925.00" cy="147.72" r="4" fill="#dc2626"/>
<line x1="390" y1="552" x2="414" y2="552" stroke="#dc2626" stroke-width="3"/>
<text x="421" y="556" font-family="sans-serif" font-size="13">vllm</text>
</svg>
